{
  "accessors": [
    {
      "bufferView": 2,
      "componentType": 5126,
      "count": 13796,
      "max": [
        0.19152814149856567,
        0.6078647971153259,
        0.09338679909706116
      ],
      "min": [
        -0.24725106358528137,
        0.03373467177152634,
        -0.08515807241201401
      ],
      "type": "VEC3"
    },
    {
      "bufferView": 2,
      "byteOffset": 165552,
      "componentType": 5126,
      "count": 13796,
      "max": [
        0.9999980330467224,
        0.9999937415122986,
        0.9999984502792358
      ],
      "min": [
        -0.999991774559021,
        -0.803678035736084,
        -0.9999990463256836
      ],
      "type": "VEC3"
    },
    {
      "bufferView": 1,
      "componentType": 5126,
      "count": 13796,
      "max": [
        0.9998701214790344,
        0.9999144077301025
      ],
      "min": [
        0.0013753650709986687,
        0.003170907497406006
      ],
      "type": "VEC2"
    },
    {
      "bufferView": 1,
      "byteOffset": 110368,
      "componentType": 5126,
      "count": 13796,
      "max": [
        0.9998701214790344,
        0.9999144077301025
      ],
      "min": [
        0.0013753650709986687,
        0.003170907497406006
      ],
      "type": "VEC2"
    },
    {
      "bufferView": 1,
      "byteOffset": 220736,
      "componentType": 5126,
      "count": 13796,
      "max": [
        0.9998701214790344,
        0.9999144077301025
      ],
      "min": [
        0.0013753650709986687,
        0.003170907497406006
      ],
      "type": "VEC2"
    },
    {
      "bufferView": 0,
      "componentType": 5125,
      "count": 72306,
      "type": "SCALAR"
    }
  ],
  "asset": {
    "extras": {
      "author": "BeechAssets (https://sketchfab.com/BeechAssets)",
      "license": "CC-BY-NC-SA-4.0 (http://creativecommons.org/licenses/by-nc-sa/4.0/)",
      "source": "https://sketchfab.com/3d-models/pack-of-cards-c77e31d423df457aa3ae34177dbe7f4a",
      "title": "Pack of Cards"
    },
    "generator": "Sketchfab-15.49.0",
    "version": "2.0"
  },
  "bufferViews": [
    {
      "buffer": 0,
      "byteLength": 289224,
      "name": "floatBufferViews",
      "target": 34963
    },
    {
      "buffer": 0,
      "byteLength": 331104,
      "byteOffset": 289224,
      "byteStride": 8,
      "name": "floatBufferViews",
      "target": 34962
    },
    {
      "buffer": 0,
      "byteLength": 331104,
      "byteOffset": 620328,
      "byteStride": 12,
      "name": "floatBufferViews",
      "target": 34962
    }
  ],
  "buffers": [
    {
      "byteLength": 951432,
      "uri": "scene.bin"
    }
  ],
  "extensionsUsed": [
    "KHR_materials_unlit"
  ],
  "images": [
    {
      "uri": "textures/material_0_baseColor.jpeg"
    }
  ],
  "materials": [
    {
      "extensions": {
        "KHR_materials_unlit": {}
      },
      "name": "material_0",
      "pbrMetallicRoughness": {
        "baseColorTexture": {
          "index": 0
        },
        "metallicFactor": 0.0
      }
    }
  ],
  "meshes": [
    {
      "name": "Object_0",
      "primitives": [
        {
          "attributes": {
            "NORMAL": 1,
            "POSITION": 0,
            "TEXCOORD_0": 2,
            "TEXCOORD_1": 3,
            "TEXCOORD_2": 4
          },
          "indices": 5,
          "material": 0,
          "mode": 4
        }
      ]
    }
  ],
  "nodes": [
    {
      "children": [
        1
      ],
      "matrix": [
        1.0,
        0.0,
        0.0,
        0.0,
        0.0,
        2.220446049250313e-16,
        -1.0,
        0.0,
        0.0,
        1.0,
        2.220446049250313e-16,
        0.0,
        0.0,
        0.0,
        0.0,
        1.0
      ],
      "name": "Sketchfab_model"
    },
    {
      "children": [
        2
      ],
      "name": "root"
    },
    {
      "children": [
        3
      ],
      "matrix": [
        1.0,
        0.0,
        0.0,
        0.0,
        0.0,
        2.220446049250313e-16,
        1.0,
        0.0,
        0.0,
        -1.0,
        2.220446049250313e-16,
        0.0,
        0.0,
        0.0,
        0.0,
        1.0
      ],
      "name": "GLTF_SceneRootNode"
    },
    {
      "children": [
        4
      ],
      "name": "_0"
    },
    {
      "mesh": 0,
      "name": "Object_4"
    }
  ],
  "samplers": [
    {
      "magFilter": 9729,
      "minFilter": 9987,
      "wrapS": 10497,
      "wrapT": 10497
    }
  ],
  "scene": 0,
  "scenes": [
    {
      "name": "Sketchfab_Scene",
      "nodes": [
        0
      ]
    }
  ],
  "textures": [
    {
      "sampler": 0,
      "source": 0
    }
  ]
}
